<svg width="640" height="331" viewBox="0 0 640 331" fill="none" xmlns="http://www.w3.org/2000/svg">
<path d="M167.386 58H47.4897C25.9647 58 15.2022 58 4.84917 59.9837C-4.33823 61.744 -13.2663 64.6583 -21.723 68.6573C-31.2526 73.1637 -39.9424 79.5133 -57.3222 92.2124L-200.252 196.649L-200.252 196.649C-215.364 207.692 -222.921 213.214 -223.843 218.098C-224.64 222.322 -223.224 226.66 -220.089 229.6C-216.462 233 -207.103 233 -188.386 233H-67.8987C-46.5931 233 -35.9403 233 -25.6928 231.037C-16.599 229.294 -7.7619 226.41 0.608551 222.451C10.041 217.991 18.6423 211.706 35.8449 199.136L179.251 94.3507C194.364 83.3079 201.921 77.7865 202.843 72.9019C203.64 68.6781 202.224 64.3398 199.089 61.3999C195.462 58 186.103 58 167.386 58Z" fill="#5954E9"/>
<path d="M545.088 0H277.283C244.142 0 227.572 0 211.631 3.05343C197.486 5.76308 183.739 10.249 170.718 16.4047C156.045 23.3414 142.665 33.1153 115.903 52.6633L115.903 52.6635L-187.357 274.181C-210.639 291.187 -222.28 299.69 -223.701 307.213C-224.93 313.718 -222.75 320.4 -217.92 324.928C-212.336 330.165 -197.92 330.165 -169.088 330.165H99.627C132.43 330.165 148.832 330.165 164.609 327.142C178.611 324.46 192.217 320.02 205.105 313.927C219.629 307.061 232.873 297.387 259.362 278.038L563.357 55.9841C586.639 38.9775 598.28 30.4743 599.701 22.9515C600.93 16.4464 598.75 9.76455 593.92 5.23651C588.336 0 573.92 0 545.088 0Z" fill="url(#paint0_linear_13630_80779)"/>
<defs>
<linearGradient id="paint0_linear_13630_80779" x1="-89.5876" y1="330.466" x2="445.889" y2="-36.7184" gradientUnits="userSpaceOnUse">
<stop stop-color="#FAFAFD"/>
<stop offset="1" stop-color="#DCDEE5" stop-opacity="0"/>
</linearGradient>
</defs>
</svg>
