<svg width="280" height="181" viewBox="0 0 280 181" fill="none" xmlns="http://www.w3.org/2000/svg">
<g clip-path="url(#clip0_14545_87900)">
<rect width="280" height="180.645" rx="9.03226" fill="#5954E9"/>
<g opacity="0.8">
<rect x="25.9688" y="62.0967" width="46.2897" height="30.8598" rx="7.01359" fill="url(#paint0_linear_14545_87900)" stroke="url(#paint1_linear_14545_87900)" stroke-width="1.12903"/>
<path fill-rule="evenodd" clip-rule="evenodd" d="M49.116 62.4038L43.9727 70.4685C43.9727 70.4685 46.03 77.5251 43.9727 83.5736L49.116 92.6464L54.2593 83.5736C54.2593 83.5736 52.2019 78.5332 54.2593 70.4685L49.116 62.4038Z" stroke="#2B2B2B" stroke-width="0.567972" stroke-linejoin="bevel"/>
<g clip-path="url(#clip1_14545_87900)" filter="url(#filter0_dd_14545_87900)">
<path d="M0 9.03226C0 4.04388 4.04388 0 9.03226 0H270.968C275.956 0 280 4.04388 280 9.03226V171.613C280 176.601 275.956 180.645 270.968 180.645H9.03227C4.04389 180.645 0 176.601 0 171.613V9.03226Z" fill="#423CC9"/>
<g style="mix-blend-mode:overlay" opacity="0.2">
<path d="M345.761 101.37H285.105C267.339 101.37 258.456 101.37 249.857 102.879C242.225 104.218 234.774 106.439 227.653 109.495C219.631 112.938 212.196 117.8 197.327 127.523L118.941 178.785C103.631 188.797 95.9754 193.804 94.9607 198.28C94.0843 202.146 95.289 206.189 98.1384 208.945C101.438 212.136 110.585 212.136 128.878 212.136H190.021C207.607 212.136 216.399 212.136 224.91 210.642C232.465 209.316 239.84 207.119 246.888 204.094C254.829 200.686 262.187 195.874 276.905 186.249L355.698 134.721C371.009 124.708 378.664 119.702 379.679 115.226C380.555 111.36 379.351 107.317 376.501 104.561C373.202 101.37 364.055 101.37 345.761 101.37Z" fill="white"/>
</g>
<path d="M247.757 139.074H233.723V164.236H247.757V139.074Z" fill="#F26522"/>
<path d="M234.611 151.657C234.611 146.552 237.007 142.006 240.737 139.076C238.009 136.934 234.566 135.655 230.824 135.655C221.966 135.655 214.785 142.82 214.785 151.658C214.785 160.497 221.966 167.662 230.824 167.662C234.566 167.662 238.008 166.383 240.737 164.241C237.007 161.308 234.611 156.761 234.611 151.657Z" fill="#E51B24"/>
<path d="M266.686 151.657C266.686 160.496 259.505 167.66 250.647 167.66C246.905 167.66 243.463 166.382 240.734 164.24C244.465 161.31 246.86 156.763 246.86 151.659C246.86 146.554 244.464 142.008 240.734 139.078C243.462 136.936 246.905 135.657 250.647 135.657C259.505 135.654 266.686 142.819 266.686 151.657Z" fill="#F99F1C"/>
<path d="M265.159 161.573V161.058H265.367V160.954H264.836V161.058H265.045V161.573H265.159ZM266.188 161.573V160.952H266.026L265.839 161.38L265.653 160.952H265.49V161.573H265.605V161.105L265.78 161.509H265.899L266.074 161.103V161.573H266.188Z" fill="black"/>
<path d="M195.294 23.3622H193.148V27.3115C193.148 27.6406 193.23 27.8811 193.395 28.033C193.559 28.1849 193.8 28.2735 194.116 28.2988C194.433 28.3115 194.825 28.3051 195.294 28.2798V30.5013C193.61 30.6912 192.42 30.5329 191.724 30.0266C191.041 29.5203 190.699 28.6152 190.699 27.3115V23.3622H189.047V21.0078H190.699V19.0901L193.148 18.3496V21.0078H195.294V23.3622Z" fill="white"/>
<path d="M199.428 22.6407C199.656 22.0331 200.03 21.5774 200.549 21.2736C201.08 20.9698 201.669 20.8179 202.314 20.8179V23.552C201.568 23.4634 200.897 23.6153 200.302 24.0077C199.719 24.4001 199.428 25.052 199.428 25.9634V30.5013H196.979V21.0078H199.428V22.6407Z" fill="white"/>
<path d="M210.42 21.0078H212.869V30.5013H210.42V29.3811C209.686 30.3051 208.654 30.7671 207.325 30.7671C206.059 30.7671 204.97 30.2861 204.059 29.3241C203.16 28.3494 202.711 27.1596 202.711 25.7545C202.711 24.3495 203.16 23.166 204.059 22.204C204.97 21.2293 206.059 20.742 207.325 20.742C208.654 20.742 209.686 21.204 210.42 22.128V21.0078ZM205.901 27.6912C206.394 28.1849 207.021 28.4317 207.781 28.4317C208.54 28.4317 209.167 28.1849 209.66 27.6912C210.167 27.1849 210.42 26.5393 210.42 25.7545C210.42 24.9697 210.167 24.3305 209.66 23.8368C209.167 23.3305 208.54 23.0774 207.781 23.0774C207.021 23.0774 206.394 23.3305 205.901 23.8368C205.407 24.3305 205.16 24.9697 205.16 25.7545C205.16 26.5393 205.407 27.1849 205.901 27.6912Z" fill="white"/>
<path d="M220.179 20.742C221.217 20.742 222.071 21.0901 222.742 21.7863C223.425 22.4824 223.767 23.4445 223.767 24.6723V30.5013H221.318V24.9761C221.318 24.3432 221.147 23.8622 220.805 23.5331C220.463 23.1913 220.008 23.0204 219.438 23.0204C218.805 23.0204 218.299 23.2166 217.919 23.609C217.539 24.0014 217.349 24.59 217.349 25.3748V30.5013H214.9V21.0078H217.349V22.0711C217.944 21.185 218.887 20.742 220.179 20.742Z" fill="white"/>
<path d="M227.928 23.7039C227.928 23.9571 228.093 24.166 228.422 24.3305C228.763 24.4824 229.175 24.6216 229.656 24.7482C230.137 24.8621 230.618 25.014 231.099 25.2039C231.58 25.3811 231.985 25.6849 232.314 26.1153C232.656 26.5457 232.827 27.0836 232.827 27.7292C232.827 28.7038 232.46 29.457 231.725 29.9886C231.004 30.5076 230.099 30.7671 229.01 30.7671C227.061 30.7671 225.732 30.0139 225.023 28.5076L227.15 27.3115C227.428 28.1342 228.048 28.5456 229.01 28.5456C229.884 28.5456 230.32 28.2735 230.32 27.7292C230.32 27.476 230.15 27.2735 229.808 27.1216C229.479 26.957 229.074 26.8115 228.593 26.6849C228.112 26.5583 227.631 26.4001 227.15 26.2102C226.669 26.0204 226.257 25.7229 225.915 25.3178C225.586 24.9001 225.422 24.3811 225.422 23.7609C225.422 22.8242 225.764 22.09 226.447 21.5584C227.143 21.0141 228.004 20.742 229.029 20.742C229.801 20.742 230.504 20.9192 231.137 21.2736C231.77 21.6154 232.27 22.109 232.637 22.7546L230.548 23.8938C230.244 23.2483 229.738 22.9255 229.029 22.9255C228.713 22.9255 228.447 22.9951 228.232 23.1343C228.029 23.2736 227.928 23.4634 227.928 23.7039Z" fill="white"/>
<path d="M244.624 21.0078H247.225L244.206 30.5013H241.87L240.124 24.7482L238.377 30.5013H236.041L233.023 21.0078H235.624L237.238 26.8368L238.965 21.0078H241.282L243.01 26.8558L244.624 21.0078Z" fill="white"/>
<path d="M255.199 21.0078H257.649V30.5013H255.199V29.3811C254.465 30.3051 253.434 30.7671 252.104 30.7671C250.839 30.7671 249.75 30.2861 248.839 29.3241C247.94 28.3494 247.491 27.1596 247.491 25.7545C247.491 24.3495 247.94 23.166 248.839 22.204C249.75 21.2293 250.839 20.742 252.104 20.742C253.434 20.742 254.465 21.204 255.199 22.128V21.0078ZM250.68 27.6912C251.174 28.1849 251.801 28.4317 252.56 28.4317C253.32 28.4317 253.946 28.1849 254.44 27.6912C254.946 27.1849 255.199 26.5393 255.199 25.7545C255.199 24.9697 254.946 24.3305 254.44 23.8368C253.946 23.3305 253.32 23.0774 252.56 23.0774C251.801 23.0774 251.174 23.3305 250.68 23.8368C250.187 24.3305 249.94 24.9697 249.94 25.7545C249.94 26.5393 250.187 27.1849 250.68 27.6912Z" fill="white"/>
<path d="M265.205 20.742C266.483 20.742 267.572 21.2293 268.471 22.204C269.382 23.166 269.838 24.3495 269.838 25.7545C269.838 27.1596 269.382 28.3494 268.471 29.3241C267.572 30.2861 266.483 30.7671 265.205 30.7671C263.876 30.7671 262.851 30.3051 262.129 29.3811V34.2987H259.68V21.0078H262.129V22.128C262.851 21.204 263.876 20.742 265.205 20.742ZM262.87 27.6912C263.363 28.1849 263.99 28.4317 264.749 28.4317C265.509 28.4317 266.135 28.1849 266.629 27.6912C267.135 27.1849 267.389 26.5393 267.389 25.7545C267.389 24.9697 267.135 24.3305 266.629 23.8368C266.135 23.3305 265.509 23.0774 264.749 23.0774C263.99 23.0774 263.363 23.3305 262.87 23.8368C262.376 24.3305 262.129 24.9697 262.129 25.7545C262.129 26.5393 262.376 27.1849 262.87 27.6912Z" fill="white"/>
<path opacity="0.6" d="M167.732 24.2979H161.598L159.075 26.1028C157.94 26.913 156.602 27.4054 155.209 27.531L148.401 32.3984C147.586 32.9811 148.011 34.2327 149.022 34.2327H154.485C156.137 34.2327 157.744 33.7207 159.073 32.7692L168.353 26.1342C169.17 25.5515 168.745 24.2979 167.732 24.2979Z" fill="white"/>
<path d="M180.796 13.5483H157.599C155.949 13.5483 154.342 14.0604 153.012 15.0119L148.331 18.3883C147.516 18.9709 147.941 20.2246 148.952 20.2246H172.146C173.798 20.2246 175.406 19.7125 176.734 18.761L181.417 15.3846C182.232 14.802 181.807 13.5483 180.796 13.5483Z" fill="white"/>
<path opacity="0.8" d="M156.105 20.2222L148.401 25.7291C147.586 26.3118 148.011 27.5635 149.022 27.5635H154.485C156.137 27.5635 157.744 27.0514 159.073 26.0999L167.296 20.2202H156.105V20.2222Z" fill="white"/>
</g>
</g>
<path d="M83.2926 73.5197C83.2926 73.5197 83.2926 73.4274 83.2926 73.3813C83.3494 73.1069 83.4916 72.8575 83.6989 72.6688C83.9062 72.4802 84.1678 72.3621 84.4464 72.3313C84.7044 72.2735 84.9739 72.2956 85.2191 72.3945C85.4643 72.4934 85.6737 72.6645 85.8194 72.8852C86.5456 73.855 87.0354 74.981 87.2501 76.1734C87.4579 77.25 87.4444 78.3576 87.2103 79.4287C86.9763 80.4999 86.5266 81.5122 85.8886 82.4039C85.7434 82.6531 85.5246 82.8513 85.2622 82.9711C84.9998 83.091 84.7068 83.1266 84.4233 83.0731C84.1454 83.0407 83.8846 82.9219 83.6776 82.7336C83.4707 82.5452 83.328 82.2968 83.2695 82.0231C83.2695 82.0231 83.2695 82.0231 83.2695 82.0231V81.4924C83.4311 81.2155 83.5695 80.9386 83.7426 80.6617C84.3134 79.7887 84.6175 78.7683 84.6175 77.7253C84.6175 76.6823 84.3134 75.6618 83.7426 74.7889C83.5695 74.5005 83.4311 74.1774 83.2695 73.8659L83.2926 73.5197Z" fill="white"/>
<path d="M104.062 77.6963C104.082 82.0091 102.976 86.2526 100.854 90.0072C100.733 90.2604 100.535 90.4691 100.289 90.6037C100.042 90.7383 99.7598 90.792 99.4812 90.7571C99.2536 90.7395 99.0342 90.6649 98.843 90.5403C98.6518 90.4157 98.495 90.245 98.387 90.044C98.279 89.843 98.2233 89.618 98.225 89.3898C98.2267 89.1616 98.2857 88.9375 98.3966 88.738C98.9753 87.7154 99.4767 86.651 99.8965 85.5536C100.993 82.6118 101.457 79.4719 101.258 76.3388C101.059 73.2056 100.202 70.1496 98.7427 67.37C98.6158 67.1277 98.4658 66.8854 98.3389 66.6431C98.2525 66.484 98.1983 66.3094 98.1794 66.1294C98.1605 65.9494 98.1772 65.7674 98.2286 65.5938C98.2801 65.4202 98.3652 65.2585 98.4791 65.1178C98.5931 64.9772 98.7336 64.8603 98.8927 64.7739C99.0518 64.6876 99.2263 64.6334 99.4064 64.6145C99.5864 64.5956 99.7684 64.6123 99.9419 64.6637C100.115 64.7152 100.277 64.8003 100.418 64.9142C100.559 65.0281 100.675 65.1687 100.762 65.3278C102.715 68.7526 103.826 72.5925 104.004 76.531C104.062 76.9233 104.062 77.304 104.062 77.6963Z" fill="white"/>
<path d="M98.4046 77.927C98.3754 81.2666 97.4724 84.5403 95.7855 87.4227C95.6382 87.7042 95.3979 87.9259 95.1054 88.05C94.813 88.1741 94.4866 88.193 94.1818 88.1034C93.8812 88.0264 93.6168 87.8473 93.4337 87.5969C93.2506 87.3464 93.1602 87.0401 93.178 86.7304C93.2058 86.4699 93.2883 86.2183 93.4203 85.992C94.2245 84.6064 94.8194 83.1096 95.1855 81.5499C96.1795 77.4591 95.564 73.1429 93.4664 69.4929C93.2506 69.1747 93.1526 68.7911 93.1895 68.4083C93.2314 68.1172 93.3664 67.8474 93.5744 67.6394C93.7824 67.4315 94.0521 67.2964 94.3433 67.2545C94.6251 67.2019 94.9162 67.2379 95.1766 67.3578C95.437 67.4777 95.6538 67.6754 95.7971 67.9237C96.3756 68.9133 96.8659 69.9519 97.2623 71.0274C98.0504 73.241 98.4372 75.5775 98.4046 77.927Z" fill="white"/>
<path d="M92.73 78.3776C92.635 80.673 91.9431 82.904 90.7224 84.8503C90.5862 85.0999 90.3765 85.3014 90.1217 85.4276C89.867 85.5537 89.5795 85.5984 89.2985 85.5556C89.0175 85.5127 88.7565 85.3844 88.5509 85.1881C88.3453 84.9917 88.2052 84.7368 88.1495 84.4581C88.0857 84.084 88.1684 83.6998 88.3803 83.385C88.9503 82.4648 89.3708 81.4601 89.6263 80.4083C90.3468 77.6102 89.932 74.6408 88.4725 72.1472C88.3497 71.9553 88.2491 71.7502 88.1726 71.5357C88.0849 71.2272 88.1098 70.8976 88.243 70.6058C88.3762 70.314 88.6089 70.0792 88.8994 69.9435C89.1897 69.7959 89.5241 69.7601 89.839 69.8431C90.1538 69.9261 90.4272 70.122 90.6071 70.3934C91.0465 71.102 91.4321 71.8425 91.7608 72.6087C92.4883 74.4415 92.8187 76.4077 92.73 78.3776Z" fill="white"/>
<g opacity="0.8">
<rect x="25.9648" y="62.0967" width="46.2897" height="30.8598" rx="7.01359" fill="url(#paint2_linear_14545_87900)" stroke="url(#paint3_linear_14545_87900)" stroke-width="1.12903"/>
<path fill-rule="evenodd" clip-rule="evenodd" d="M49.112 62.4038L43.9688 70.4685C43.9688 70.4685 46.0261 77.5251 43.9688 83.5736L49.112 92.6464L54.2553 83.5736C54.2553 83.5736 52.198 78.5332 54.2553 70.4685L49.112 62.4038Z" stroke="#2B2B2B" stroke-width="0.567972" stroke-linejoin="bevel"/>
<path d="M25.9648 70.5143H43.9664" stroke="#2B2B2B" stroke-width="0.567972" stroke-linejoin="bevel"/>
<path d="M54.1914 70.522H72.2559" stroke="#2B2B2B" stroke-width="0.567972" stroke-linejoin="bevel"/>
<path d="M25.9648 83.4982H43.9664" stroke="#2B2B2B" stroke-width="0.567972" stroke-linejoin="bevel"/>
<path d="M54.1914 83.5484H72.2559" stroke="#2B2B2B" stroke-width="0.567972" stroke-linejoin="bevel"/>
</g>
</g>
<defs>
<filter id="filter0_dd_14545_87900" x="-13.5484" y="-9.03226" width="307.097" height="207.742" filterUnits="userSpaceOnUse" color-interpolation-filters="sRGB">
<feFlood flood-opacity="0" result="BackgroundImageFix"/>
<feColorMatrix in="SourceAlpha" type="matrix" values="0 0 0 0 0 0 0 0 0 0 0 0 0 0 0 0 0 0 127 0" result="hardAlpha"/>
<feOffset dy="4.51613"/>
<feGaussianBlur stdDeviation="6.77419"/>
<feColorMatrix type="matrix" values="0 0 0 0 0.180392 0 0 0 0 0.203922 0 0 0 0 0.47451 0 0 0 0.04 0"/>
<feBlend mode="normal" in2="BackgroundImageFix" result="effect1_dropShadow_14545_87900"/>
<feColorMatrix in="SourceAlpha" type="matrix" values="0 0 0 0 0 0 0 0 0 0 0 0 0 0 0 0 0 0 127 0" result="hardAlpha"/>
<feOffset dy="0.564516"/>
<feGaussianBlur stdDeviation="1.12903"/>
<feColorMatrix type="matrix" values="0 0 0 0 0.180392 0 0 0 0 0.203922 0 0 0 0 0.47451 0 0 0 0.04 0"/>
<feBlend mode="normal" in2="effect1_dropShadow_14545_87900" result="effect2_dropShadow_14545_87900"/>
<feBlend mode="normal" in="SourceGraphic" in2="effect2_dropShadow_14545_87900" result="shape"/>
</filter>
<linearGradient id="paint0_linear_14545_87900" x1="25.9688" y1="62.0967" x2="72.2591" y2="93.1451" gradientUnits="userSpaceOnUse">
<stop stop-color="#9CA19B"/>
<stop offset="0.489583" stop-color="#E9E9E9"/>
<stop offset="1" stop-color="#9CA19B"/>
</linearGradient>
<linearGradient id="paint1_linear_14545_87900" x1="73.3881" y1="93.1451" x2="24.5575" y2="58.1451" gradientUnits="userSpaceOnUse">
<stop stop-color="#B3B3B3"/>
<stop offset="0.479167" stop-color="#B3B3B3" stop-opacity="0"/>
<stop offset="1" stop-color="#B3B3B3"/>
</linearGradient>
<linearGradient id="paint2_linear_14545_87900" x1="25.9648" y1="62.0967" x2="72.2552" y2="93.1451" gradientUnits="userSpaceOnUse">
<stop stop-color="#9CA19B"/>
<stop offset="0.489583" stop-color="#E9E9E9"/>
<stop offset="1" stop-color="#9CA19B"/>
</linearGradient>
<linearGradient id="paint3_linear_14545_87900" x1="73.3842" y1="93.1451" x2="24.5536" y2="58.1451" gradientUnits="userSpaceOnUse">
<stop stop-color="#B3B3B3"/>
<stop offset="0.479167" stop-color="#B3B3B3" stop-opacity="0"/>
<stop offset="1" stop-color="#B3B3B3"/>
</linearGradient>
<clipPath id="clip0_14545_87900">
<rect width="280" height="180.645" rx="9.03226" fill="white"/>
</clipPath>
<clipPath id="clip1_14545_87900">
<rect width="280" height="180.645" fill="white"/>
</clipPath>
</defs>
</svg>
