<svg width="24" height="24" viewBox="0 0 24 24" fill="none" xmlns="http://www.w3.org/2000/svg">
<path d="M1 2.55555C1 1.8148 1.25902 1.20369 1.77703 0.722221C2.29504 0.240733 2.96848 0 3.7973 0C4.61133 0 5.26994 0.237022 5.77317 0.71111C6.29118 1.2 6.55019 1.83702 6.55019 2.62222C6.55019 3.33333 6.29859 3.9259 5.79537 4.39999C5.27736 4.88888 4.59653 5.13332 3.7529 5.13332H3.7307C2.91666 5.13332 2.25805 4.88888 1.75483 4.39999C1.2516 3.9111 1 3.29628 1 2.55555ZM1.28861 22V7.15554H6.21718V22H1.28861ZM8.94788 22H13.8764V13.7111C13.8764 13.1926 13.9357 12.7926 14.0541 12.5111C14.2613 12.0074 14.5758 11.5814 14.9976 11.2333C15.4194 10.8852 15.9485 10.7111 16.5849 10.7111C18.2426 10.7111 19.0714 11.8296 19.0714 14.0666V22H24V13.4889C24 11.2963 23.482 9.63332 22.4459 8.49999C21.4099 7.36665 20.0409 6.79999 18.3388 6.79999C16.4295 6.79999 14.9421 7.62221 13.8764 9.26665V9.3111H13.8542L13.8764 9.26665V7.15554H8.94788C8.97747 7.62961 8.99228 9.10367 8.99228 11.5778C8.99228 14.0518 8.97747 17.5259 8.94788 22Z" fill="#16171C"/>
</svg>
