<svg width="299" height="216" viewBox="0 0 299 216" fill="none" xmlns="http://www.w3.org/2000/svg">
<path d="M382.991 65H329.292C312.376 65 303.918 65 295.781 66.5586C288.561 67.9417 281.544 70.2314 274.898 73.3735C267.408 76.9142 260.578 81.9032 246.918 91.8812L175.121 144.326C163.237 153.006 157.295 157.347 156.57 161.186C155.942 164.507 157.055 167.918 159.521 170.229C162.371 172.902 169.73 172.902 184.446 172.902H238.61C255.354 172.902 263.726 172.902 271.779 171.359C278.926 169.99 285.871 167.724 292.45 164.614C299.863 161.109 306.624 156.171 320.144 146.295L320.145 146.294L392.317 93.5761C404.201 84.8954 410.143 80.5551 410.868 76.7152C411.495 73.3948 410.382 69.9842 407.917 67.6729C405.066 65 397.708 65 382.991 65Z" fill="#76B5FF"/>
<path d="M382.991 0H329.292C312.376 0 303.918 0 295.781 1.55857C288.561 2.94167 281.544 5.23144 274.898 8.37351C267.408 11.9142 260.578 16.9032 246.918 26.8812L175.121 79.3255C163.237 88.0062 157.295 92.3466 156.57 96.1865C155.942 99.5069 157.055 102.918 159.521 105.229C162.371 107.902 169.73 107.902 184.446 107.902H238.61C255.354 107.902 263.726 107.902 271.779 106.359C278.926 104.99 285.871 102.724 292.45 99.6135C299.863 96.1089 306.624 91.1708 320.144 81.2945L320.145 81.2944L392.317 28.5761C404.201 19.8954 410.143 15.5551 410.868 11.7152C411.495 8.39481 410.382 4.98415 407.917 2.67289C405.066 0 397.708 0 382.991 0Z" fill="url(#paint0_linear)"/>
<path d="M246.991 108H193.292C176.376 108 167.918 108 159.781 109.559C152.561 110.942 145.544 113.231 138.898 116.374C131.408 119.914 124.578 124.903 110.918 134.881L39.1211 187.326C27.2371 196.006 21.2951 200.347 20.5697 204.186C19.9425 207.507 21.0555 210.918 23.5205 213.229C26.3712 215.902 33.7296 215.902 48.4465 215.902H102.61C119.354 215.902 127.726 215.902 135.779 214.359C142.926 212.99 149.871 210.724 156.45 207.614C163.863 204.109 170.624 199.171 184.144 189.295L184.145 189.294L256.317 136.576C268.201 127.895 274.143 123.555 274.868 119.715C275.495 116.395 274.382 112.984 271.917 110.673C269.066 108 261.708 108 246.991 108Z" fill="#5954E9"/>
<path d="M246.991 43H193.292C176.376 43 167.918 43 159.781 44.5586C152.561 45.9417 145.544 48.2314 138.898 51.3735C131.408 54.9142 124.578 59.9032 110.918 69.8812L39.1211 122.326C27.2371 131.006 21.2951 135.347 20.5697 139.186C19.9425 142.507 21.0555 145.918 23.5205 148.229C26.3712 150.902 33.7296 150.902 48.4465 150.902H102.61C119.354 150.902 127.726 150.902 135.779 149.359C142.926 147.99 149.871 145.724 156.45 142.614C163.863 139.109 170.624 134.171 184.144 124.295L184.145 124.294L256.317 71.5761C268.201 62.8954 274.143 58.5551 274.868 54.7152C275.495 51.3948 274.382 47.9842 271.917 45.6729C269.066 43 261.708 43 246.991 43Z" fill="url(#paint1_linear)"/>
<defs>
<linearGradient id="paint0_linear" x1="193" y1="108" x2="368" y2="-12" gradientUnits="userSpaceOnUse">
<stop stop-color="#FAFAFD"/>
<stop offset="1" stop-color="#DCDEE5" stop-opacity="0"/>
</linearGradient>
<linearGradient id="paint1_linear" x1="57" y1="151" x2="232" y2="31" gradientUnits="userSpaceOnUse">
<stop stop-color="#FAFAFD"/>
<stop offset="1" stop-color="#DCDEE5" stop-opacity="0"/>
</linearGradient>
</defs>
</svg>
