<svg width="757" height="1016" viewBox="0 0 757 1016" fill="none" xmlns="http://www.w3.org/2000/svg">
<path d="M931.716 896.545C880.929 940.752 855.536 962.855 826.8 978.605C801.311 992.575 773.95 1002.82 745.553 1009.01C713.537 1016 679.871 1016 612.539 1016L147.05 1016C101.557 1016 78.8098 1016 69.0297 1007.29C60.5565 999.743 56.35 988.503 57.7865 977.248C59.4446 964.257 76.6019 949.322 110.917 919.454L1029.28 120.069C1080.07 75.8615 1105.46 53.758 1134.2 38.0082C1159.69 24.0383 1187.05 13.7982 1215.45 7.60067C1247.46 0.613499 1281.13 0.613506 1348.46 0.61352L1813.95 0.613617C1859.44 0.613626 1882.19 0.613631 1891.97 9.3239C1900.44 16.8703 1904.65 28.1099 1903.21 39.3652C1901.56 52.3563 1884.4 67.2908 1850.08 97.1596L931.716 896.545Z" fill="url(#paint0_linear_11958_54477)"/>
<path d="M753.531 575.046C702.727 619.316 677.326 641.452 648.573 657.225C623.07 671.215 595.691 681.47 567.273 687.677C535.234 694.675 501.54 694.675 434.154 694.675L236.496 694.675C191.036 694.675 168.305 694.675 158.526 685.969C150.054 678.425 145.845 667.19 147.277 655.937C148.93 642.948 166.067 628.015 200.34 598.149L725.596 140.44C776.4 96.1699 801.802 74.0346 830.554 58.2617C856.057 44.2714 883.436 34.0158 911.854 27.8089C943.893 20.8112 977.587 20.8112 1044.97 20.8112L1242.63 20.8112C1288.09 20.8113 1310.82 20.8113 1320.6 29.5177C1329.07 37.061 1333.28 48.2966 1331.85 59.5497C1330.2 72.5383 1313.06 87.4714 1278.79 117.338L753.531 575.046Z" fill="url(#paint1_linear_11958_54477)"/>
<defs>
<linearGradient id="paint0_linear_11958_54477" x1="-224.027" y1="749.027" x2="1320.57" y2="536.698" gradientUnits="userSpaceOnUse">
<stop stop-color="#CAE3FA"/>
<stop offset="1" stop-color="#CAEEFA" stop-opacity="0"/>
</linearGradient>
<linearGradient id="paint1_linear_11958_54477" x1="-58.9434" y1="517.498" x2="965.045" y2="376.89" gradientUnits="userSpaceOnUse">
<stop stop-color="#CAE3FA"/>
<stop offset="1" stop-color="#CAEEFA" stop-opacity="0"/>
</linearGradient>
</defs>
</svg>
