<svg width="24" height="24" viewBox="0 0 24 24" fill="none" xmlns="http://www.w3.org/2000/svg">
<path d="M16.0361 2.00444V2H17.1614L17.5726 2.08435C17.8467 2.13911 18.0956 2.21088 18.3192 2.29967C18.5428 2.38846 18.7593 2.49205 18.9684 2.61043C19.1776 2.72881 19.3674 2.84943 19.5376 2.97225C19.7064 3.09361 19.8579 3.22235 19.9921 3.35849C20.1248 3.49612 20.3318 3.53163 20.6132 3.46504C20.8945 3.39845 21.1975 3.30595 21.5221 3.18757C21.8467 3.06919 22.1677 2.936 22.4851 2.78801C22.8025 2.64002 22.9959 2.54606 23.0651 2.5061C23.1329 2.46468 23.169 2.44249 23.1733 2.43951L23.1776 2.43285L23.1993 2.42175L23.2209 2.41065L23.2426 2.39956L23.2642 2.38846L23.2685 2.3818L23.275 2.37736L23.2815 2.37292L23.2858 2.36626L23.3075 2.3596L23.3291 2.35516L23.3248 2.38846L23.3183 2.42175L23.3075 2.45505L23.2967 2.48835L23.2858 2.51054L23.275 2.53274L23.2642 2.56604C23.257 2.58824 23.2498 2.61782 23.2426 2.65483C23.2354 2.69183 23.1668 2.8398 23.037 3.09878C22.9071 3.35776 22.7448 3.62042 22.55 3.88679C22.3553 4.15316 22.1807 4.35441 22.0264 4.49057C21.8705 4.62819 21.7674 4.72437 21.7169 4.77913C21.6664 4.83536 21.6051 4.88715 21.5329 4.93452L21.4247 5.00777L21.4031 5.01887L21.3814 5.02997L21.3771 5.03663L21.3706 5.04107L21.3641 5.0455L21.3598 5.05216L21.3381 5.06326L21.3165 5.07436L21.3122 5.08102L21.3057 5.08546L21.2992 5.0899L21.2949 5.09656L21.2906 5.10322L21.284 5.10766L21.2775 5.1121L21.2732 5.11876H21.3814L21.9874 4.98557C22.3914 4.89678 22.7773 4.7895 23.1452 4.66371L23.7295 4.46393L23.7944 4.44173L23.8269 4.43063L23.8485 4.41953L23.8702 4.40844L23.8918 4.39734L23.9134 4.38624L23.9567 4.37958L24 4.37514V4.41953L23.9892 4.42397L23.9784 4.43063L23.9741 4.43729L23.9675 4.44173L23.961 4.44617L23.9567 4.45283L23.9524 4.45949L23.9459 4.46393L23.9394 4.46837L23.9351 4.47503L23.9308 4.48169L23.9243 4.48613L23.9134 4.50832L23.9026 4.53052L23.8961 4.53496C23.8932 4.5394 23.8016 4.66517 23.6213 4.91232C23.4409 5.16093 23.3436 5.2867 23.3291 5.28968C23.3147 5.29412 23.2945 5.31631 23.2685 5.35627C23.244 5.39769 23.0911 5.56271 22.8097 5.85128C22.5284 6.13984 22.2529 6.39658 21.9831 6.62153C21.7118 6.84795 21.5748 7.12615 21.5719 7.45616C21.5676 7.78468 21.551 8.15614 21.5221 8.57048C21.4932 8.98484 21.4391 9.43247 21.3598 9.91343C21.2804 10.3944 21.1578 10.9382 20.9919 11.5449C20.826 12.1517 20.624 12.7436 20.3859 13.3208C20.1479 13.8979 19.899 14.4158 19.6393 14.8746C19.3796 15.3333 19.1416 15.7218 18.9252 16.04C18.7087 16.3581 18.4887 16.6578 18.2651 16.939C18.0415 17.2201 17.7587 17.5368 17.4168 17.889C17.0734 18.2397 16.8859 18.4321 16.8541 18.4661C16.8209 18.4987 16.6796 18.6201 16.4299 18.8302C16.1818 19.0418 15.9149 19.2534 15.6292 19.465C15.345 19.6752 15.0839 19.8505 14.8458 19.9911C14.6078 20.1317 14.3207 20.2923 13.9845 20.4728C13.6498 20.6548 13.2876 20.8235 12.8981 20.9789C12.5086 21.1343 12.0974 21.2786 11.6646 21.4118C11.2317 21.5449 10.8134 21.6485 10.4094 21.7225C10.0054 21.7965 9.54735 21.8594 9.03517 21.9112L8.26691 21.9889V22H6.86023V21.9889L6.67629 21.9778C6.55367 21.9704 6.45267 21.963 6.37331 21.9556C6.29397 21.9482 5.99459 21.9075 5.4752 21.8335C4.95582 21.7595 4.54825 21.6855 4.25248 21.6115C3.95673 21.5376 3.51668 21.397 2.93237 21.1898C2.34806 20.9826 1.84815 20.7732 1.43264 20.5616C1.01858 20.3515 0.758889 20.2183 0.653562 20.162C0.549684 20.1073 0.432822 20.0392 0.302976 19.9578L0.108206 19.8357L0.103899 19.8291L0.097385 19.8246L0.0908927 19.8202L0.0865645 19.8135L0.0649234 19.8024L0.0432822 19.7913L0.0389757 19.7847L0.0324617 19.7802L0.0259693 19.7758L0.0216411 19.7691L0.0173345 19.7625L0.0108206 19.758H0V19.7137L0.0216411 19.7181L0.0432822 19.7248L0.140667 19.7358C0.205591 19.7432 0.382334 19.7543 0.670875 19.7691C0.959437 19.784 1.26601 19.784 1.59062 19.7691C1.91524 19.7543 2.24708 19.721 2.58611 19.6693C2.92516 19.6175 3.32553 19.5287 3.7872 19.4029C4.24889 19.2771 4.67305 19.1276 5.05971 18.9545C5.44493 18.7799 5.71903 18.6497 5.88208 18.5638C6.04365 18.4795 6.29036 18.3226 6.62218 18.0932L7.11993 17.7492L7.12426 17.7425L7.13075 17.7381L7.13726 17.7336L7.14157 17.727L7.1459 17.7203L7.15239 17.7159L7.1589 17.7114L7.16321 17.7048L7.18485 17.6981L7.20649 17.6937L7.21082 17.6715L7.21731 17.6493L7.22383 17.6448L7.22813 17.6382L7.055 17.6271C6.93959 17.6197 6.82777 17.6123 6.71957 17.6049C6.61136 17.5975 6.44185 17.5642 6.211 17.505C5.98018 17.4458 5.7313 17.357 5.46438 17.2386C5.19748 17.1202 4.93779 16.9796 4.6853 16.8169C4.43284 16.6541 4.25032 16.5187 4.13778 16.4107C4.0267 16.3041 3.88242 16.1532 3.70496 15.9578C3.52895 15.761 3.37601 15.559 3.24617 15.3518C3.11632 15.1447 2.99225 14.9056 2.87396 14.6349L2.69432 14.2309L2.6835 14.1976L2.67268 14.1643L2.66619 14.1421L2.66186 14.1199L2.69432 14.1243L2.72678 14.131L2.96483 14.1643C3.12355 14.1865 3.37242 14.1939 3.71145 14.1865C4.0505 14.1791 4.28494 14.1643 4.41479 14.1421C4.54463 14.1199 4.62399 14.1051 4.65284 14.0977L4.69612 14.0866L4.75023 14.0755L4.80433 14.0644L4.80866 14.0577L4.81515 14.0533L4.82166 14.0488L4.82597 14.0422L4.78269 14.0311L4.73941 14.02L4.69612 14.0089L4.65284 13.9978L4.60956 13.9867C4.58071 13.9793 4.53022 13.9645 4.45807 13.9423C4.38594 13.9201 4.19117 13.8387 3.87376 13.6981C3.55637 13.5575 3.30388 13.4206 3.11632 13.2875C2.92829 13.1539 2.74901 13.0078 2.57962 12.8502C2.41082 12.6903 2.22544 12.4846 2.02344 12.2331C1.82147 11.9815 1.64113 11.6892 1.48242 11.3563C1.32372 11.0233 1.2047 10.7051 1.12534 10.4018C1.0463 10.1002 0.994153 9.79185 0.969544 9.48058L0.930568 9.01443L0.952209 9.01887L0.97385 9.02553L0.995491 9.03663L1.01713 9.04772L1.03877 9.05882L1.06041 9.06992L1.39585 9.22531C1.61949 9.3289 1.89721 9.41769 2.22904 9.49168C2.56088 9.56566 2.75924 9.60637 2.82417 9.61376L2.92155 9.62486H3.11632L3.11201 9.6182L3.1055 9.61376L3.09901 9.60932L3.09468 9.60266L3.09037 9.596L3.08386 9.59156L3.07737 9.58712L3.07304 9.58047L3.0514 9.56937L3.02976 9.55827L3.02545 9.55161L3.01894 9.54717L3.01244 9.54273L3.00812 9.53607L2.98647 9.52497L2.96483 9.51387L2.96053 9.50721C2.9562 9.50424 2.89415 9.45689 2.77439 9.36515C2.65608 9.27192 2.53201 9.15132 2.40216 9.00333C2.27232 8.85534 2.14247 8.69996 2.01262 8.53718C1.88254 8.37403 1.76667 8.19948 1.66637 8.01554C1.56539 7.83057 1.45861 7.59525 1.34608 7.30966C1.23499 7.02553 1.15059 6.73918 1.09288 6.45061C1.03518 6.16204 1.00272 5.87718 0.995491 5.596C0.988285 5.31483 0.995491 5.07436 1.01713 4.87458C1.03877 4.67481 1.08206 4.44912 1.14698 4.19756C1.2119 3.94599 1.3057 3.67962 1.42831 3.39845L1.61226 2.97669L1.62308 2.9434L1.6339 2.9101L1.64042 2.90566L1.64472 2.899L1.64905 2.89234L1.65555 2.8879L1.66206 2.89234L1.66637 2.899L1.67069 2.90566L1.67719 2.9101L1.6837 2.91454L1.68801 2.9212L1.69234 2.92786L1.69883 2.9323L1.70965 2.95449L1.72047 2.97669L1.72698 2.98113L1.73129 2.98779L2.02344 3.32075C2.21821 3.54273 2.44906 3.79061 2.71596 4.06437C2.98288 4.33814 3.13076 4.4802 3.1596 4.49057C3.18847 4.5024 3.22453 4.53643 3.26781 4.59267C3.31109 4.64744 3.45537 4.7784 3.70063 4.98557C3.94591 5.19274 4.26691 5.43323 4.66366 5.70699C5.06043 5.98075 5.50046 6.25083 5.98377 6.5172C6.4671 6.78357 6.98649 7.02404 7.54193 7.23862C8.09739 7.45321 8.48693 7.59378 8.71055 7.66038C8.93419 7.72697 9.3165 7.81205 9.85753 7.91565C10.3986 8.01925 10.8061 8.08584 11.0803 8.11543C11.3544 8.14502 11.5419 8.16204 11.6429 8.16648L11.7944 8.17092L11.7901 8.13762L11.7836 8.10433L11.7403 7.82686C11.7115 7.64189 11.697 7.38291 11.697 7.04994C11.697 6.71698 11.7223 6.40992 11.7728 6.12875C11.8233 5.84757 11.899 5.56271 12 5.27414C12.101 4.98557 12.1998 4.75396 12.2965 4.57936C12.3946 4.40622 12.523 4.20866 12.6817 3.98668C12.8404 3.76471 13.046 3.53534 13.2985 3.29856C13.551 3.06178 13.8395 2.8509 14.1641 2.66593C14.4887 2.48095 14.7881 2.34036 15.0622 2.24417C15.3363 2.14799 15.5672 2.08508 15.7547 2.05549C15.9423 2.0259 16.0361 2.00888 16.0361 2.00444Z" fill="#16171C"/>
</svg>
