<svg width="38" height="38" viewBox="0 0 38 38" fill="none" xmlns="http://www.w3.org/2000/svg">
<path fill-rule="evenodd" clip-rule="evenodd" d="M33.8308 19.4037C34.3831 19.4037 34.834 18.9556 34.8002 18.4044C34.5663 14.5929 32.9932 10.8483 30.0807 7.93579C27.1683 5.02336 23.4237 3.4502 19.6124 3.21631C19.0611 3.18248 18.613 3.63339 18.613 4.18568V4.18568C18.613 4.73796 19.0612 5.18203 19.6122 5.22061C22.911 5.45163 26.1446 6.82809 28.6665 9.35C31.1884 11.872 32.5649 15.1057 32.7959 18.4045C32.8344 18.9555 33.2785 19.4037 33.8308 19.4037V19.4037ZM30.2074 19.4037C30.7597 19.4037 31.2116 18.9553 31.168 18.4048C30.94 15.5221 29.7236 12.7029 27.5186 10.4979C25.3136 8.293 22.4946 7.07653 19.612 6.84851C19.0614 6.80496 18.613 7.25678 18.613 7.80907V7.80907C18.613 8.36135 19.0617 8.80419 19.6115 8.85595C21.9811 9.07898 24.2899 10.0977 26.1044 11.9121C27.9188 13.7266 28.9376 16.0355 29.1606 18.4052C29.2123 18.955 29.6552 19.4037 30.2074 19.4037V19.4037ZM26.5843 19.4037C27.1366 19.4037 27.59 18.9547 27.529 18.4058C27.3117 16.4528 26.4542 14.5575 24.9567 13.0599C23.4591 11.5624 21.5639 10.7049 19.6109 10.4876C19.062 10.4265 18.613 10.88 18.613 11.4322V11.4322C18.613 11.9845 19.0629 12.4249 19.6096 12.5034C21.0486 12.7101 22.4354 13.367 23.5424 14.4741C24.6495 15.5812 25.3064 16.968 25.5131 18.4071C25.5916 18.9538 26.032 19.4037 26.5843 19.4037V19.4037Z" fill="#5954E9"/>
<path d="M26.8744 25.0607L22.2782 29.6569C18.5682 33.3668 12.5531 33.3668 8.84314 29.6569C5.13316 25.9469 5.13316 19.9318 8.84314 16.2218L13.4393 11.6256L16.9749 15.1612L12.3787 19.7574C10.6213 21.5147 10.6213 24.364 12.3787 26.1213C14.136 27.8787 16.9853 27.8787 18.7426 26.1213L23.3388 21.5251L26.8744 25.0607Z" stroke="#5954E9" stroke-width="2"/>
<circle cx="19.0962" cy="19.4037" r="2.5" transform="rotate(45 19.0962 19.4037)" fill="#5954E9"/>
</svg>
