<svg width="32" height="33" viewBox="0 0 32 33" fill="none" xmlns="http://www.w3.org/2000/svg">
<path d="M1 14.4002L1 22.6002C1 24.8405 1 25.9606 1.43597 26.8162C1.81947 27.5689 2.43139 28.1808 3.18404 28.5643C4.03969 29.0002 5.15979 29.0002 7.4 29.0002L19.1 29.0002C21.3402 29.0002 22.4603 29.0002 23.316 28.5643C24.0686 28.1808 24.6805 27.5689 25.064 26.8162C25.5 25.9606 25.5 24.8405 25.5 22.6002L25.5 14.4002C25.5 12.16 25.5 11.0399 25.064 10.1843C24.6805 9.43164 24.0686 8.81971 23.316 8.43622C22.4603 8.00024 21.3402 8.00024 19.1 8.00024L7.4 8.00024C5.15979 8.00024 4.03969 8.00024 3.18404 8.43622C2.43139 8.81971 1.81947 9.43163 1.43597 10.1843C1 11.0399 1 12.16 1 14.4002Z" fill="#5954E9"/>
<path d="M15.182 16.8033L17.3033 14.6819C18.6212 13.3641 19.2801 12.7051 19.5846 11.97C19.9906 10.9899 19.9906 9.88867 19.5846 8.90856C19.2801 8.17348 18.6212 7.51454 17.3033 6.19666C15.9854 4.87877 15.3265 4.21983 14.5914 3.91535C13.6113 3.50938 12.51 3.50938 11.5299 3.91535C10.7948 4.21983 10.1359 4.87877 8.81801 6.19666L6.69669 8.31798C5.37881 9.63586 4.71987 10.2948 4.41539 11.0299C4.00941 12.01 4.00941 13.1112 4.41539 14.0914C4.71987 14.8264 5.37881 15.4854 6.69669 16.8033C8.01457 18.1211 8.67351 18.7801 9.4086 19.0846C10.3887 19.4905 11.49 19.4905 12.4701 19.0846C13.2051 18.7801 13.8641 18.1211 15.182 16.8033Z" fill="white" stroke="#5954E9" stroke-width="2"/>
<path d="M10.8885 18.8668L11.3835 19.3617C12.9675 20.9458 13.7596 21.7378 14.6729 22.0346C15.4762 22.2956 16.3416 22.2956 17.145 22.0346C18.0583 21.7378 18.8504 20.9458 20.4344 19.3617L24.1114 15.6848C25.6954 14.1007 26.4875 13.3087 26.7842 12.3954C27.0453 11.592 27.0453 10.7266 26.7842 9.92322C26.4875 9.0099 25.6954 8.21787 24.1114 6.6338L23.6164 6.13883C22.0323 4.55476 21.2403 3.76273 20.327 3.46597C19.5236 3.20494 18.6582 3.20494 17.8548 3.46597C16.9415 3.76273 16.1495 4.55476 14.5654 6.13883L10.8885 9.81578C9.30441 11.3999 8.51238 12.1919 8.21562 13.1052C7.95459 13.9086 7.95459 14.774 8.21562 15.5773C8.51238 16.4906 9.30441 17.2827 10.8885 18.8668Z" fill="white" stroke="#5954E9" stroke-width="2"/>
<path d="M1 12.0002L1 25.6002C1 27.8405 1 28.9606 1.43597 29.8162C1.81947 30.5689 2.43139 31.1808 3.18404 31.5643C4.03969 32.0002 5.15979 32.0002 7.4 32.0002L23.6 32.0002C25.8402 32.0002 26.9603 32.0002 27.816 31.5643C28.5686 31.1808 29.1805 30.5689 29.564 29.8162C30 28.9606 30 27.8405 30 25.6002L30 18.4002C30 16.16 30 15.0399 29.564 14.1843C29.1805 13.4316 28.5686 12.8197 27.816 12.4362C26.9603 12.0002 25.8402 12.0002 23.6 12.0002L1 12.0002Z" fill="white" stroke="#5954E9" stroke-width="2"/>
<path d="M20 17.5H30.1143C30.6035 17.5 31 17.8965 31 18.3857V25.6143C31 26.1035 30.6035 26.5 30.1143 26.5H20C17.5147 26.5 15.5 24.4853 15.5 22C15.5 19.5147 17.5147 17.5 20 17.5Z" fill="white" stroke="#5954E9" stroke-width="2"/>
<circle cx="20" cy="22.0002" r="2.5" fill="#5954E9"/>
</svg>
