<svg width="32" height="32" viewBox="0 0 32 32" fill="none" xmlns="http://www.w3.org/2000/svg">
<g clip-path="url(#clip0)">
<path d="M20.2677 31.9149L20.0013 30.9161C22.1987 30.3168 23.0644 23.5247 20.6672 14.7349C18.3366 5.94509 14.2081 0.484751 12.0106 1.08405L11.7443 0.0852156C15.2735 -0.847014 19.6018 6.61095 21.666 14.4685C23.7303 22.3261 23.8635 30.9161 20.2677 31.9149Z" fill="#5954E9"/>
<path d="M28.7912 22.5902C25.3951 23.5224 19.735 23.0563 14.4745 21.6579C10.2794 20.5259 6.55041 18.9278 3.82021 17.1964C0.956851 15.3319 -0.374914 13.4008 0.0912322 11.7361L1.09007 11.9359C0.823694 13.0678 2.0223 14.666 4.41952 16.2641C7.0165 17.9954 10.6789 19.527 14.7408 20.5924C23.5306 22.923 30.3227 22.124 30.922 19.86L31.9209 20.1263C31.5879 21.325 30.4559 22.1241 28.7912 22.5902Z" fill="#5954E9"/>
<path d="M4.42713 27.6832C1.83321 25.088 6.1564 17.6352 11.8764 11.9125C17.5963 6.18981 25.0455 1.79798 27.706 4.39315L26.9744 5.12511C25.3781 3.52808 19.0596 6.18981 12.6746 12.6444C6.28952 19.0991 3.56247 25.3542 5.15873 26.9512L4.42713 27.6832Z" fill="#5954E9"/>
<path d="M29.0914 12.4665C31.0106 19.6566 26.732 27.1012 19.5357 29.0864C12.357 31.0667 4.90741 26.735 2.91974 19.5297C0.939441 12.351 5.27105 4.9013 12.4764 2.91364C19.6539 0.933688 27.1021 5.26341 29.0914 12.4665Z" fill="white" stroke="#5954E9" stroke-width="2"/>
<path d="M20.2678 31.9149C16.7386 32.8471 12.4102 25.3892 10.2794 17.5316C8.14855 9.67406 8.14855 1.08404 11.7444 0.0852051L12.0108 1.08404C9.81331 1.68335 8.94762 8.47546 11.3448 17.2652C13.7421 26.055 17.804 31.5154 20.068 30.9161L20.2678 31.9149Z" fill="#5954E9"/>
<path d="M20.2678 31.915L20.0681 30.9162C19.5393 31.0561 18.9126 30.8656 18.2318 30.3794L16.802 30.561C17.9742 31.6739 19.1604 32.2076 20.2678 31.915Z" fill="#5954E9"/>
<path d="M12.0108 1.08404L11.7444 0.0852051C10.6186 0.397911 9.84534 1.45464 9.37952 3L10.6975 2.5C11.0432 1.71686 11.4895 1.22621 12.0108 1.08404Z" fill="#5954E9"/>
<path d="M31.8833 20.2617L30.8857 19.9954C31.4842 17.7979 26.0304 13.6694 17.2509 11.3387C8.47153 8.9415 1.68744 9.80718 1.08885 12.0046L0.0911865 11.7383C1.02232 8.20904 9.66873 8.20904 17.517 10.2733C25.3653 12.3375 32.8144 16.6659 31.8833 20.2617Z" fill="#5954E9"/>
<path d="M30.8857 19.9953L31.8834 20.2616C32.1788 19.1207 31.6306 17.9061 30.4936 16.7134L30.3933 18.2492C30.8465 18.9014 31.0212 19.4978 30.8857 19.9953Z" fill="#5954E9"/>
<path d="M0.0911865 11.7383L1.08885 12.0047C1.23066 11.4841 1.71961 11.0383 2.5 10.6928L3 9.40845C1.4426 9.86562 0.384388 10.627 0.0911865 11.7383Z" fill="#5954E9"/>
<path d="M8.28163 28.186C6.61688 28.6522 5.21851 28.519 4.41943 27.6533L5.1519 26.9209C6.75004 28.519 13.076 25.8554 19.4686 19.3963C25.8611 13.0037 28.5247 6.67777 26.9266 5.07963L27.6591 4.34717C30.256 6.94415 25.9278 14.4022 20.201 20.1288C16.339 23.9909 11.6777 27.2537 8.28163 28.186Z" fill="#5954E9"/>
<path d="M9.98278 12.5432C11.3635 12.5432 12.4828 11.4239 12.4828 10.0432C12.4828 8.6625 11.3635 7.54321 9.98278 7.54321C8.60207 7.54321 7.48279 8.6625 7.48279 10.0432C7.48279 11.4239 8.60207 12.5432 9.98278 12.5432Z" fill="#5954E9"/>
<path d="M13.178 26.9919C14.5587 26.9919 15.678 25.8727 15.678 24.4919C15.678 23.1112 14.5587 21.9919 13.178 21.9919C11.7973 21.9919 10.678 23.1112 10.678 24.4919C10.678 25.8727 11.7973 26.9919 13.178 26.9919Z" fill="#5954E9"/>
<path d="M24.4313 16.6719C25.812 16.6719 26.9313 15.5526 26.9313 14.1719C26.9313 12.7912 25.812 11.6719 24.4313 11.6719C23.0506 11.6719 21.9313 12.7912 21.9313 14.1719C21.9313 15.5526 23.0506 16.6719 24.4313 16.6719Z" fill="#5954E9"/>
</g>
<defs>
<clipPath id="clip0">
<rect width="32" height="32" fill="white"/>
</clipPath>
</defs>
</svg>
