<svg width="32" height="32" viewBox="0 0 32 32" fill="none" xmlns="http://www.w3.org/2000/svg">
<path d="M14 17H18.1417C18.9691 17 19.316 18.1357 18.6487 18.6635L11.0676 24.6742C9.98246 25.5361 8.66939 26 7.31998 26H2.8572C2.03137 26 1.68452 24.8661 2.35014 24.3383L8.28076 19.9289" stroke="#5954E9" stroke-width="2" stroke-linecap="round" stroke-linejoin="round"/>
<path d="M29.1344 8H9.99904C8.63807 8 7.31212 8.46018 6.21467 9.31531L2.35358 12.3497C1.68143 12.8733 2.03168 14 2.86561 14H21.9993C23.3619 14 24.6879 13.5398 25.7837 12.6847L29.6464 9.65031C30.3186 9.12665 29.9683 8 29.1344 8Z" stroke="#5954E9" stroke-width="2" stroke-linecap="round" stroke-linejoin="round"/>
<path d="M8.73349 14.0016L2.35491 18.5012C1.68022 18.9773 2.0318 20 2.86888 20H7.39248C8.76027 20 10.0912 19.5816 11.1912 18.8042L18 14H8.73349V14.0016Z" stroke="#5954E9" stroke-width="2" stroke-linecap="round" stroke-linejoin="round"/>
</svg>
