<svg width="32" height="32" viewBox="0 0 32 32" fill="none" xmlns="http://www.w3.org/2000/svg">
<path d="M21.9393 9.0249H13.9921C13.2916 9.0249 12.7239 9.59259 12.7239 10.2931C12.7239 10.9935 13.2916 11.5613 13.9921 11.5613H21.9393C22.6401 11.5613 23.2074 10.9936 23.2074 10.2931C23.2074 9.59259 22.6397 9.0249 21.9393 9.0249Z" fill="#5954E9"/>
<path d="M24.9828 15.1548H13.9921C13.2916 15.1548 12.7239 15.7225 12.7239 16.423C12.7239 17.1234 13.2916 17.6912 13.9921 17.6912H24.9828C25.6833 17.6912 26.251 17.1235 26.251 16.423C26.251 15.7225 25.6833 15.1548 24.9828 15.1548Z" fill="#5954E9"/>
<path d="M30.7318 1.07788H8.28531C7.58488 1.07788 7.01713 1.64557 7.01713 2.34607V14.3091H4.77675C2.14275 14.3091 0 16.4523 0 19.0858V26.1453C0 28.7793 2.14275 30.922 4.77675 30.922C4.99231 30.922 5.20456 30.9076 5.41213 30.8798H26.3356C29.4586 30.8798 32 28.3388 32 25.2153V2.34607C32 1.64557 31.4323 1.07788 30.7318 1.07788ZM7.01719 26.1453C7.01719 27.2321 6.23894 28.1409 5.2105 28.3434H4.77681V28.3856C3.54119 28.3856 2.53638 27.3804 2.53638 26.1452V19.0858C2.53638 17.8506 3.54163 16.8454 4.77681 16.8454H7.01725V26.1453H7.01719ZM29.4637 25.2153C29.4637 26.9108 28.0315 28.3434 26.3356 28.3434H9.01706C9.35987 27.6852 9.5535 26.9374 9.5535 26.1453V3.61419H29.4637V25.2153Z" fill="#5954E9"/>
<path d="M21.9393 20.9041H13.9921C13.2916 20.9041 12.7239 21.4717 12.7239 22.1722C12.7239 22.8727 13.2916 23.4404 13.9921 23.4404H21.9393C22.6401 23.4404 23.2074 22.8727 23.2074 22.1722C23.2074 21.4717 22.6397 20.9041 21.9393 20.9041Z" fill="#5954E9"/>
</svg>
