<svg width="38" height="32" viewBox="0 0 38 32" fill="none" xmlns="http://www.w3.org/2000/svg">
<path d="M6.1005 26.6066C2.65061 23.1567 1.23248 18.4445 1.84609 13.9567C2.27438 10.8244 3.69252 7.80138 6.1005 5.3934" stroke="#5954E9" stroke-width="2" stroke-linecap="round"/>
<path d="M25.8995 5.3934C31.7574 11.2513 31.7574 20.7487 25.8995 26.6066" stroke="#5954E9" stroke-width="2" stroke-linecap="round"/>
<path d="M23.1286 8.75933L16.1499 6.52349C16.0522 6.49217 15.948 6.49217 15.8503 6.52349L8.87143 8.75933C8.65099 8.82995 8.5 9.04667 8.5 9.29248V17.4905C8.5 18.5568 8.90424 19.6484 9.70142 20.7348C10.3103 21.5646 11.1526 22.3978 12.205 23.2114C13.9729 24.578 15.7138 25.4164 15.7871 25.4514C15.8548 25.4838 15.9274 25.5 16.0001 25.5C16.0727 25.5 16.1453 25.4838 16.213 25.4514C16.2863 25.4164 18.0271 24.578 19.7951 23.2114C20.8475 22.3978 21.6898 21.5646 22.2986 20.7348C23.0958 19.6484 23.5 18.5569 23.5 17.4905V9.29248C23.5 9.04667 23.3491 8.82995 23.1286 8.75933Z" fill="#5954E9"/>
<path d="M16 14.5L16 18.5" stroke="#FAFAFD" stroke-width="4" stroke-linecap="round"/>
<circle cx="16" cy="14.5" r="2" fill="#FAFAFD"/>
</svg>
