<svg width="32" height="32" viewBox="0 0 32 32" fill="none" xmlns="http://www.w3.org/2000/svg">
<g clip-path="url(#clip0)">
<path d="M3.91164 25.3828C4.15041 25.5022 4.40749 25.5847 4.67263 25.6308L4.25954 26.2207C4.17604 26.3401 4.1216 26.477 4.10011 26.6208L3.48512 30.7683C3.43312 31.1196 3.58376 31.4702 3.87477 31.6738C4.16603 31.8777 4.54689 31.8992 4.85891 31.7302L8.3323 29.8494C8.81204 30.7161 9.73587 31.3044 10.7947 31.3044C11.5144 31.3044 12.1719 31.0327 12.6697 30.5867C13.1678 31.0327 13.8252 31.3044 14.5447 31.3044C16.0958 31.3044 17.3575 30.0427 17.3575 28.4919V28.133C19.1014 28.9817 21.0433 29.4294 22.9825 29.4294C24.9857 29.4294 26.9722 28.97 28.7327 28.1016V30.3669C28.7327 30.6919 28.901 30.9937 29.1773 31.1645C29.4532 31.335 29.7984 31.3511 30.0894 31.2056L33.8397 29.3306C34.1573 29.1716 34.358 28.8472 34.358 28.4919V17.2417C34.358 16.7238 33.9381 16.3042 33.4205 16.3042C31.9271 16.3042 28.304 16.3042 26.9498 16.3042L20.3362 13.0681L22.8489 9.47968C23.1456 9.05585 23.0428 8.47089 22.6185 8.17401L19.5467 6.02288C19.1229 5.72625 18.5379 5.82903 18.241 6.25311C17.844 6.82 15.3108 10.4379 14.9165 11.0009C14.1475 10.5969 13.2254 10.5988 12.6404 10.8527L9.07303 12.4025C8.55594 12.6274 8.12259 12.9975 7.82034 13.4733L2.70118 21.5251C2.36866 22.0483 2.23097 22.946 2.50099 23.7563C2.73854 24.469 3.23952 25.0466 3.91164 25.3828ZM5.61501 29.1887L5.92263 27.115L6.76101 25.9175C7.12039 26.4421 7.6094 26.8706 8.18167 27.1577L7.45852 28.1904L5.61501 29.1887ZM10.7947 29.4297C10.2779 29.4297 9.85721 29.009 9.85721 28.4919V28.0337L10.1929 27.5544H11.7322V28.4919C11.7322 29.009 11.3118 29.4297 10.7947 29.4297ZM14.545 29.4297C14.0279 29.4297 13.6075 29.009 13.6075 28.4919V27.5544H15.4825V28.4919C15.4825 29.009 15.0618 29.4297 14.545 29.4297ZM32.483 27.9126L30.6078 28.8501V18.1792H32.483V27.9126ZM26.3206 18.0837C26.4491 18.1464 26.5899 18.1792 26.7327 18.1792H28.7327V26.0249C28.1009 26.2705 26.139 27.5544 22.9827 27.5544C19.6368 27.5544 17.576 26.0725 16.8392 25.7783C16.7054 25.7114 16.5579 25.6794 16.42 25.6794H9.85721C8.89847 25.6794 8.10598 24.956 7.99588 24.0263C8.02517 23.8904 8.02249 23.7507 7.99148 23.6172C8.08572 22.6709 8.8865 21.9294 9.85721 21.9294H15.6434C17.6036 21.9294 19.4468 21.166 20.8331 19.7798C21.199 19.4135 21.199 18.82 20.8331 18.4538C20.4669 18.0876 19.8734 18.0876 19.5071 18.4538C18.4749 19.4858 17.1028 20.0544 15.6434 20.0544H15.4446L19.2474 14.6232L26.3206 18.0837ZM17.0882 11.1686L18.6241 12.2443L13.1556 20.0544H10.8665C11.6636 18.916 16.357 12.2131 17.0882 11.1686ZM19.2391 8.09686L20.7752 9.1723L19.6995 10.7084L18.1636 9.63275L19.2391 8.09686ZM4.31374 22.4836L9.40262 14.4794C9.50345 14.3208 9.64798 14.1975 9.82034 14.1225L13.3431 12.592C13.4996 12.5461 13.6609 12.5429 13.8133 12.5769L8.35769 20.3681C7.20461 20.8733 6.35256 21.9416 6.15237 23.2239C5.98098 23.7053 5.2361 23.9485 4.75026 23.7055C4.29299 23.477 4.11134 22.9343 4.31374 22.4836Z" fill="#5954E9"/>
</g>
<defs>
<clipPath id="clip0">
<rect width="32" height="32" fill="white"/>
</clipPath>
</defs>
</svg>
